<?xml version='1.0' encoding='utf-8'?>
<svg xmlns="http://www.w3.org/2000/svg" version="1.1" viewBox="0 0 1024 891"> <path d="M739.398,72.481c8.304-.164,18.13-.424,26.352.198,115.618,8.742,174.61,142.427,103.502,236.671-3.758,4.978-8.256,9.44-11.248,14.956-.406,15.802.004,33.78.004,49.722l.266,394.232c.114,31.34-25.188,37.052-49.526,36.794l-535.998-.068-76.818.016c-12.957-.002-27.369.586-40.116-.944-38.067-4.564-31.914-54.004-31.899-80.612l-.206-401.74c-.388-34.066,23.734-41.216,52.731-41.224l439.642.014c-5.478-14.52-9.658-25.128-11.66-40.86-9.396-73.828,37.348-144.813,109.928-163.054,8.306-2.087,16.586-3.022,25.046-4.101Z" fill="#141413"/> <path d="m151.71 289.66c9.438-4.228 50.259-2.128 62.287-2.124l404.92 4e-3c1.982 3.388 3.276 5.928 4.964 9.484 2.99 2.986 5.758 7.82 8.41 11.298 55.934 73.388 148.77 76.276 218.74 21.252 0.122 5.832 0.436 12.532 0 18.28l-48.508 40.174c-4.314 3.604-20.856 17.936-24.38 20.172l-230.24 197.99c-17.216 14.682-48.042 49.3-73.904 27.392l-282.06-240.64c-20.673-17.628-40.867-33.62-61.293-51.712-0.632-19.144-2.575-44.946 21.068-51.57z" fill="#fee285"/> <path d="M623.876,297.024c2.99,2.986,5.758,7.82,8.41,11.298,55.934,73.388,148.774,76.276,218.736,21.252.122,5.832.436,12.532,0,18.28l-48.508,40.174c-4.314,3.604-20.856,17.936-24.38,20.172-.57-.466-1.33-1.134-2.124-1.032-83.33,10.834-154.438-10.456-189.908-95.072-2.034-4.852-3.734-10.426-6.154-15.072l29.708.018c4.078.004,10.394.272,14.22-.018Z" fill="#fec71a"/> <path d="M158.657,287.737c14.632-.998,43.311-.205,55.339-.201l404.916.004c1.982,3.388,3.276,5.928,4.964,9.484-3.826.29-10.142.022-14.22.018l-29.708-.018c-4.43.046,3.63,3.65-3.254-8.324-1.148-.108-339.198-1.148-339.198-1.148-23.95-.26-74.472.239-78.839.185Z" fill="#f9d593"/> <path d="m394.65 576.66 0.69 0.424c26.754 16.656 55.324 55.372 83.788 67.686 25.79 10.848 42.614-6.068 59.876-21.196l35.5-30.66c5.428-4.636 12.194-11.016 17.768-15.078 7.724 6.062 14.594 11.902 21.946 18.434 6.494 5.088 13.498 11.426 19.7 16.948l165.49 146.5c9.112 8.056 30.422 26.112 37.84 34.482-5.066 3.092-10.41 4.166-16.278 4.208l-618.86 0.066c-16.482-2e-3 -38.68 2.536-53.874-4.274 75.918-62.874 148.6-133.4 223.78-197.93 5.98-5.374 16.548-15.542 22.638-19.61z" fill="#fec71a"/> <path d="M394.646,576.66l.69.424c26.754,16.656,55.324,55.372,83.788,67.686,25.79,10.848,42.614-6.068,59.876-21.196l35.5-30.66c5.428-4.636,12.194-11.016,17.768-15.078,7.724,6.062,14.594,11.902,21.946,18.434-18.178,16.82-36.95,32.52-55.816,48.148-56.228,46.57-68.7,52.31-126.486,2.174l-39.3-33.802c-4.102-3.534-16.372-14.762-20.604-16.52,5.98-5.374,16.548-15.542,22.638-19.61Z" fill="#feb502"/> <path d="m844.59 324.31c-15.582 15.226-43.95 29.148-64.936 33.332-121.58 25.128-216.74-110.5-145.13-216.65 43.034-63.794 131.75-82.091 195.53-38.503 75.884 49.521 86.022 169.44 14.538 221.82z" fill="#fe5b58"/> <path d="m844.59 324.31c-15.582 15.226-43.95 29.148-64.936 33.332-121.58 25.128-216.74-110.5-145.13-216.65 43.034-63.794 131.75-82.091 195.53-38.503-11.586 1.198-24.632-0.272-36.474-0.288-47.76-0.205-90.014 9.312-121.38 48.613-76.692 96.086 26.336 235.59 153.59 181.69 6.552-2.774 11.636-6.788 18.804-8.202z" fill="#f43135"/> <path d="M755.752,138.064c14.686-.116,11.876,14.396,11.88,24.892l-.012,112.546c16.51.084,42.106-5.536,35.534,21.37-1.67,6.83-6.394,7.406-12.57,7.794-14.584.91-82.544,5.894-88.772-6.566-5.344-28.096,15.024-22.722,34.554-22.598v-86.47c-10.71,5.27-24.964,25.546-33.574,8.508-2.416-4.782-6.352-12.75-4.99-18.106,3.208-4.116,50.842-39.174,57.95-41.37Z" fill="#141413"/> <path d="M757.584,145.828l1.144.672c1.774,2.938,1.17,43.066,1.172,48.392l-.014,88.514h35.288v13.618c-27.344.314-58.064.49-85.398,0-.574-4.544-.278-9.068,0-13.618,3.01-.288,6.188-.09,9.228,0h25.208v-110.35c-7.184,3.858-25.522,17.88-32.94,23.264l-6.136-13.338c10.048-8.302,40.698-30.758,52.448-37.154Z" fill="#fefefd"/> <path d="m811.14 121.92c7.792 0.161 26.112 16.785 31.968 22.401 13.69 13.428 44.818 70.84 29.254 85.636-11.056 3.168-10.638-14.522-11.686-22.116-4.548-32.928-26.2-59.982-52.21-79.284-2.27-1.684 1.234-5.367 2.674-6.637z" fill="#f43135"/> <path d="m130.64 351.16c6.789 5.392 13.035 11.228 19.64 16.798l208.89 178.07c7.94 6.686 23.316 19.08 29.574 26.44-7.132 5.12-14.888 13.172-21.974 19.038-25.68 22.084-49.534 44.092-74.786 66.262l-80.35 70.99c-17.214 15.232-35.104 30.64-52.042 46.134-6.691 5.132-11.123 9.756-16.95 15.766-5.238-5.574-7.243-8.608-9.876-15.766-3.22-8.78-2.138-53.334-2.133-65.388l9e-3 -319.1c0.034-13.044 0.157-26.216 0-39.25z" fill="#fec71a"/> <path d="m130.64 351.16c6.789 5.392 13.035 11.228 19.64 16.798l208.89 178.07c7.94 6.686 23.316 19.08 29.574 26.44-7.132 5.12-14.888 13.172-21.974 19.038-1.526-3.344-8.44-8.396-11.574-11.108l-151.54-129.75c-11.777-10.074-62.762-56.622-73.015-60.242 0.034-13.044 0.157-26.216 0-39.25z" fill="#feb502"/> <path d="m132.76 774.9c6.477 0.126 22.508-1.024 26.826 0-6.691 5.132-11.123 9.756-16.95 15.766-5.238-5.574-7.243-8.608-9.876-15.766z" fill="#feb502"/> <path d="m851.02 357.37c0.33 2.57 0.072 11.958 0.056 14.942l-0.026 367.98c0.018 25.016 1.774 26.864-6.462 50.37-5.446-4.358-11.572-10.398-16.934-15.2l-113.67-100.8-116.26-102.19c6.038-4.118 17.532-14.458 23.344-19.548l137.41-118.56c23.948-20.194 48.874-39.29 72.414-59.978 6.432-5.654 13.264-11.964 20.126-17.014z" fill="#fec71a"/> <path d="M811.136,429.558c11.102-.752,7.86,13.812,7.868,21.28l.016,89.15c-.004,6.906,1.704,31.78-1.742,36.672-2.89.418-5.688.872-8.256-.516-1.956-2.604-1.164-94.604-1.164-104.842l-.06-25.692c-.038-5.874-1.634-12.472,3.338-16.052Z" fill="#fefefd"/> <path d="M807.86,593.142c15.034-.816,11.128,4.846,11.146,19.674l.01,61.2c-.004,6.036.788,21.294-1.738,25.784-4.99,1.598-9.034,2.268-9.22-3.928-1.026-34.094.626-68.688-.198-102.73Z" fill="#fefefd"/> </svg>