<?xml version='1.0' encoding='utf-8'?>
<svg xmlns:xlink="http://www.w3.org/1999/xlink" xmlns="http://www.w3.org/2000/svg" enable-background="new 0 0 513.132 457.576" version="1.1" viewBox="0 0 513.13 457.58"> <rect x="-12.914" y="-13.356" width="539.39" height="479.8" clip-rule="evenodd" fill="#fff" fill-rule="evenodd"/> <path d="m202.15 366.13s-103.12 7.285-60.384 17.032c27.68 6.312 102.32-7.826 121.43-6.868 19.112 0.958 114.41 2.142 129.91-1.281 15.495-3.424 1.871-10.084-22.051-11.925-23.921-1.84-100.43-10.066-100.43-10.066l-68.465 13.108z" fill="#E3E3E3"/> <path d="m197.08 369.24s-72.687 6.341-49.988 11.266c22.699 4.924 81.72-4.489 99.557-5.721 17.838-1.23 72.742-4.924 85.966-4.187 13.224 0.739 49.38 1.224 43.957-1.358-5.424-2.58-25.31-6.157-25.31-6.157l-77.792-7.309-76.39 13.466z" fill="#ABABAB"/> <path d="m207.14 366.86s-61.688 5.218-42.424 9.271c19.264 4.052 69.355-3.694 84.493-4.709 15.139-1.012 61.734-4.052 72.958-3.444 11.222 0.607 41.908 1.007 37.306-1.118-4.604-2.124-21.48-5.067-21.48-5.067l-66.021-6.016-64.832 11.083z"/> <defs> <rect id="a" x="46.457" y="13.198" width="415.2" height="386.29"/> </defs> <clipPath> <use overflow="visible" xlink:href="#a"/> </clipPath> <path d="m301.94 77.144s-101.94-8.407-130.92 100.82c-27.074 102.05 27.33 163.92 83.335 183 11.649 3.969 23.367 6.086 34.437 6.328 64.286 1.406 22.771-73.648 22.771-73.648s50.379-223.56-9.621-216.5z" clip-rule="evenodd" fill="#EFDEBA" fill-rule="evenodd"/> <path d="m253.76 361.23 14.657-9.218 11.46 14.715s-2.742-0.209-12.537-2.102c-9.188-1.775-12.467-3.405-12.467-3.405l-1.113 0.01z" clip-rule="evenodd" fill="#506720" fill-rule="evenodd"/> <path d="m196.66 147.97s31.004-47.024 87.324-55.904l-18.059 127.88-9.542 69.267-43.408-75.766-16.315-65.477z" clip-rule="evenodd" fill="#F24D4E" fill-rule="evenodd"/> <path d="m188.73 64.719s-41.005-6.773-80.187 60.4c0 0-23.229 34.757-21.776 72.421l1.741 13.9 19.191 6.401s-1.118-26.167 4.434-46.784 12.136-51.003 28.623-69.716c16.486-18.713 40.812-30.506 40.812-30.506l7.162-6.116z" clip-rule="evenodd" fill="#3D411C" fill-rule="evenodd"/> <path d="m93.028 206.11s-8.347-10.3-2.541-13.308c5.807-3.008-2.542-3.35 0.825-9.133s1.262-11.094 3.929-14.998 0.887-11.106 5.612-15.88 6.198-14.071 8.287-17.091c2.089-3.021 4.612-9.189 7.084-11.757 2.471-2.566 1.983 8.408-1.607 12.507-3.59 4.1-1.594 13.535-4.913 15.881s2.491 11.037-3.744 13.15 0.965 20.604-5.158 18.322c-6.123-2.284-0.934 16.845-0.934 16.845l-6.84 5.462z" clip-rule="evenodd" fill="#A2A554" fill-rule="evenodd"/> <path d="m191.34 67.667s-2.525 13.542 5.14 31.557c7.665 18.016 14.504 37.364 17.989 48.634s9.991 36.201 14.406 50.276 10.952 36.843 13.489 45.933c2.538 9.089-1.358 17.878-1.358 17.878l-71.264-21.793-26.388-14.646-29.946-9.339-6.509-3.753s-3.461-18.805 4.891-48.57 27.937-85.797 76.751-100.79l2.799 4.613z" clip-rule="evenodd" fill="#EFDEBA" fill-rule="evenodd"/> <path d="m190.68 72.93c0.092 7.481 3.031 19.802 5.793 26.294 7.665 18.016 14.504 37.364 17.989 48.634s9.991 36.201 14.406 50.276 10.952 36.843 13.489 45.933c2.538 9.089-1.358 17.878-1.358 17.878l-46.148-14.113c-34.028-15.333-78.52-31.292-78.52-31.292-1.175-0.021-5.151-40.61 17.903-88.81 19.821-41.436 47.868-54.781 56.446-54.8z" clip-rule="evenodd" fill="#F87061" fill-rule="evenodd"/> <polygon points="115.32 199.02 115.02 205.76 142.28 204.57" clip-rule="evenodd" fill="#F04E3F" fill-rule="evenodd"/> <polygon points="115.22 205.2 115.3 211.89 142.78 210.95" clip-rule="evenodd" fill="#F04E3F" fill-rule="evenodd"/> <polygon points="119.66 167.06 118.17 173.43 145.1 175.17" clip-rule="evenodd" fill="#F04E3F" fill-rule="evenodd"/> <polygon points="121.44 159.83 119.34 167.46 145.44 171.13" clip-rule="evenodd" fill="#F04E3F" fill-rule="evenodd"/> <polygon points="123.44 154.29 121.23 160.41 147.16 165.94" clip-rule="evenodd" fill="#F04E3F" fill-rule="evenodd"/> <polygon points="125.32 148.84 123.32 155.52 149.38 160.37" clip-rule="evenodd" fill="#F04E3F" fill-rule="evenodd"/> <polygon points="126.69 143.56 125.12 150.05 151.19 154.93" clip-rule="evenodd" fill="#F04E3F" fill-rule="evenodd"/> <polygon points="128.45 137.44 126.88 143.93 152.94 148.81" clip-rule="evenodd" fill="#F04E3F" fill-rule="evenodd"/> <polygon points="131.14 131.27 128.44 138.04 153.64 143.33" clip-rule="evenodd" fill="#F04E3F" fill-rule="evenodd"/> <polygon points="133.82 124.66 130.63 132.42 155.54 138.28" clip-rule="evenodd" fill="#F04E3F" fill-rule="evenodd"/> <polygon points="136.45 118.47 133.11 125.79 158.72 132.92" clip-rule="evenodd" fill="#F04E3F" fill-rule="evenodd"/> <polygon points="139.3 112.91 135.97 119.28 160.36 129.11" clip-rule="evenodd" fill="#F04E3F" fill-rule="evenodd"/> <polygon points="142.24 108.11 138.35 114.4 162.91 123.6" clip-rule="evenodd" fill="#F04E3F" fill-rule="evenodd"/> <polygon points="145.94 102.06 141.28 109.03 165.6 118.94" clip-rule="evenodd" fill="#F04E3F" fill-rule="evenodd"/> <polygon points="149.48 97.277 145.22 103.11 166.97 114.36" clip-rule="evenodd" fill="#F04E3F" fill-rule="evenodd"/> <polygon points="154.31 91.586 148.9 98.075 170.3 110.57" clip-rule="evenodd" fill="#F04E3F" fill-rule="evenodd"/> <polygon points="158.66 86.417 153.12 92.312 172.88 105.58" clip-rule="evenodd" fill="#F04E3F" fill-rule="evenodd"/> <polygon points="162.88 83.029 157.29 87.601 176.76 101.67" clip-rule="evenodd" fill="#F04E3F" fill-rule="evenodd"/> <polygon points="167.48 79.771 162.13 83.981 181 98.055" clip-rule="evenodd" fill="#F04E3F" fill-rule="evenodd"/> <polygon points="173.91 76.4 166.85 80.488 184.96 94.527" clip-rule="evenodd" fill="#F04E3F" fill-rule="evenodd"/> <polygon points="180.01 74.292 171.97 77.931 190.09 91.97" clip-rule="evenodd" fill="#F04E3F" fill-rule="evenodd"/> <polygon points="186.98 71.554 179.21 75.231 193.31 90.45" clip-rule="evenodd" fill="#F04E3F" fill-rule="evenodd"/> <path d="m191.09 69.673c-0.166 1.934-0.289 5.185 0.126 9.401l-6.093-6.575 5.967-2.826z" clip-rule="evenodd" fill="#F04E3F" fill-rule="evenodd"/> <polygon points="115.47 193.07 114.89 199.75 142.3 198.95" clip-rule="evenodd" fill="#F04E3F" fill-rule="evenodd"/> <polygon points="115.5 186.63 115.19 193.17 142.21 193.72" clip-rule="evenodd" fill="#F04E3F" fill-rule="evenodd"/> <polygon points="116.6 180.16 115.79 186.81 142.3 187.82" clip-rule="evenodd" fill="#F04E3F" fill-rule="evenodd"/> <polygon points="117.9 173.14 116.31 180.38 142.88 181.41" clip-rule="evenodd" fill="#F04E3F" fill-rule="evenodd"/> <path d="m114.51 214.88s-3.509-13.09-1.196-32.625c2.959-24.994 9.142-40.089 14.504-52.165 5.242-11.804 10.559-20.427 15.818-28.237 6.827-10.139 19.341-21.569 29.466-26.988 10.078-5.395 12.729-5.18 18.14-6.134l-0.287 3.013s-10.141 3.524-15.808 6.932c-6.899 4.15-11.866 6.515-19.695 15.813-17.929 21.293-21.362 29.652-28.041 49.456-4.963 14.716-8.835 37.835-8.693 51.78 0.068 6.579-0.091 8.74 0.874 15.26 0.963 6.52-5.082 3.895-5.082 3.895z" clip-rule="evenodd" fill="#F3EAD5" fill-rule="evenodd"/> <path d="m253.08 252.31s-21.851-2.321-29.135-5.726-28.161-12.905-48.989-19.009c-20.829-6.105-24.827-9.439-38.884-14.894-14.056-5.455-29.767-6.737-38.177-9.694-6.093-2.143-5.496-3.794-8.917-4.657-1.301-0.327-3.183-0.542-6.234-0.625-11.077-0.302-5.154-3.342-14.531-6.954 0 0-30.273 56.787 15.001 124.7 37.813 56.715 92.555 57.251 119.7 59.786 27.148 2.536 55.006-11.415 73.439-27.824 19.985-17.791-23.276-95.098-23.276-95.098z" clip-rule="evenodd" fill="#F33248" fill-rule="evenodd"/> <path d="m265.35 356.49c-17.526 12.104-40.466 20.79-62.433 18.739-27.147-2.535-81.89-3.071-119.7-59.786-45.275-67.907-15.002-124.7-15.002-124.7 9.377 3.612 3.454 6.652 14.531 6.954 0.84 0.022 1.592 0.056 2.267 0.098-1.424 4.523-8.034 10.925-8.424 14.717-0.734 7.144 2.292 15.178 3.302 19.579 1.009 4.401 1.881 13.983 5.478 16.667 4.354 3.248 1.236 8.649 4.345 12.231s3.32 7.503 6.285 12.155c2.966 4.651 3.018 7.306 5.755 11.309 2.738 4.004 3.633 10.832 7.613 13.656 3.981 2.823 6.875 14.161 11.407 16.837s2.094 6.925 10.058 8.001c0 0 2.736 8.909 8.467 8.686 0 0 6.333 7.073 9.365 6.337 0 0 4.578 7.114 9.987 7.636 0 0 10.866 8.14 16.874 8.829 0 0 10.952 8.171 15.769 5.766 0 0 6.187 6.629 12.775 3.618 0 0 10.16 6.517 17.381 1.985 0 0 12.083 0.446 16.804-3.987 0 0 8.052 1.18 12.728-4.89 0 0 9.684-0.104 14.446-13.643l10.337-9.186 4.769 6.414c-0.458 1.519 0.627 3.619-0.153 4.849-3.02 2.578-9.232 6.202-15.028 11.124z" clip-rule="evenodd" fill="#E9CC9E" fill-rule="evenodd"/> <path d="m240.74 369.29c-12.058 4.668-25.021 7.139-37.825 5.943-27.147-2.535-81.89-3.071-119.7-59.786-45.274-67.907-15.001-124.7-15.001-124.7 1.169 0.45 2.101 0.892 2.856 1.32-1.921 4.037-9.781 25.342 11.088 70.992 23.37 51.119 43.005 73.217 76.097 93.825 27.105 16.878 52.001 23.577 82.488 12.401z" clip-rule="evenodd" fill="#3D411C" fill-rule="evenodd"/> <path d="m68.952 263.35s-1.67 10.879 3.392 14.809c5.063 3.93 7.668 6.104 8.163 13.149 0.496 7.046 4.709 15.814 4.709 15.814s0.933 11.268 8.339 13.758c7.405 2.49 11.836 13.72 11.836 13.72l13.919 7.654s1.949-9.167-3.443-9.989c-5.392-0.823-7.653-12.358-14.986-14.623-7.334-2.266-2.999-13.547-8.521-15.676-5.521-2.13-11.853-10.658-11.853-10.658l-0.551-18.476-11.004-9.482z" clip-rule="evenodd" fill="#A2A554" fill-rule="evenodd"/> <path d="m328.74 80.008s-4.631-12.606-7.787-18.117c0 0 0.226-4.242 3.609-3.053 0 0 11.218 18.078 12.772 21.844s-8.594-0.674-8.594-0.674z" clip-rule="evenodd" fill="#4D3020" fill-rule="evenodd"/> <polygon points="74.408 199.09 105.67 206.44 73.969 205.19" clip-rule="evenodd" fill="#F87061" fill-rule="evenodd"/> <path d="m74.649 195.24c1.128 1.375 2.226 2.304 8.094 2.464 3.052 0.083 4.934 0.297 6.234 0.625 2.687 0.678 2.896 1.841 5.811 3.347l-20.543-0.812 0.404-5.624z" clip-rule="evenodd" fill="#F87061" fill-rule="evenodd"/> <polygon points="74.94 204.64 104.9 210.43 75.034 210.93" clip-rule="evenodd" fill="#F87061" fill-rule="evenodd"/> <polygon points="74.902 210.34 105.65 214.86 75.311 217.01" clip-rule="evenodd" fill="#F87061" fill-rule="evenodd"/> <polygon points="75.357 216.92 105.97 219.83 76.501 223.57" clip-rule="evenodd" fill="#F87061" fill-rule="evenodd"/> <polygon points="76.618 222.53 107.16 225.37 78.156 229.34" clip-rule="evenodd" fill="#F87061" fill-rule="evenodd"/> <polygon points="77.592 228.48 110.19 231.43 79.664 235.11" clip-rule="evenodd" fill="#F87061" fill-rule="evenodd"/> <polygon points="79.273 235.46 110.45 237.02 80.906 242" clip-rule="evenodd" fill="#F87061" fill-rule="evenodd"/> <polygon points="80.127 241.01 111.78 242.4 82.329 247.87" clip-rule="evenodd" fill="#F87061" fill-rule="evenodd"/> <polygon points="81.306 247.2 112.09 248.68 83.622 254.38" clip-rule="evenodd" fill="#F87061" fill-rule="evenodd"/> <polygon points="83.843 253.55 114.15 253.96 87.504 261.35" clip-rule="evenodd" fill="#F87061" fill-rule="evenodd"/> <polygon points="88.295 260.76 116.56 259.11 90.104 267.37" clip-rule="evenodd" fill="#F87061" fill-rule="evenodd"/> <polygon points="90.372 266.83 119.1 264.62 92.97 273.43" clip-rule="evenodd" fill="#F87061" fill-rule="evenodd"/> <polygon points="93.974 273.16 120.42 269.82 96.572 279.76" clip-rule="evenodd" fill="#F87061" fill-rule="evenodd"/> <polygon points="96.578 279 122.05 274.82 112.77 279.2 99.177 285.61" clip-rule="evenodd" fill="#F87061" fill-rule="evenodd"/> <polygon points="99.95 284.56 124.6 280.05 103.49 291.72" clip-rule="evenodd" fill="#F87061" fill-rule="evenodd"/> <polygon points="103.6 290.69 126.82 284.37 106.2 297.3" clip-rule="evenodd" fill="#F87061" fill-rule="evenodd"/> <polygon points="107.19 296.45 130.62 289.71 111.27 303.45" clip-rule="evenodd" fill="#F87061" fill-rule="evenodd"/> <polygon points="110.81 303.04 133.67 294.05 115.42 310.34" clip-rule="evenodd" fill="#F87061" fill-rule="evenodd"/> <polygon points="114.77 309.86 136.85 298.64 119.88 315.86" clip-rule="evenodd" fill="#F87061" fill-rule="evenodd"/> <polygon points="119.58 315.72 140.96 302.48 124.73 321.57" clip-rule="evenodd" fill="#F87061" fill-rule="evenodd"/> <polygon points="124.67 321 145.72 306.62 130.58 327.2" clip-rule="evenodd" fill="#F87061" fill-rule="evenodd"/> <polygon points="130.27 326.34 149.99 310.6 136.18 332.54" clip-rule="evenodd" fill="#F87061" fill-rule="evenodd"/> <polygon points="136 332 155.74 314.72 143.2 337.03" clip-rule="evenodd" fill="#F87061" fill-rule="evenodd"/> <polygon points="142.94 336.91 161.12 319.21 151.22 342.54" clip-rule="evenodd" fill="#F87061" fill-rule="evenodd"/> <polygon points="151.21 342.15 167.55 323.2 158.29 346.98" clip-rule="evenodd" fill="#F87061" fill-rule="evenodd"/> <polygon points="157.88 346.12 174.47 326.93 166.15 350.47" clip-rule="evenodd" fill="#F87061" fill-rule="evenodd"/> <polygon points="165.96 350.45 181.71 331.24 174.12 354.57" clip-rule="evenodd" fill="#F87061" fill-rule="evenodd"/> <polygon points="173.69 353.1 189.82 334.84 182.79 357.33" clip-rule="evenodd" fill="#F87061" fill-rule="evenodd"/> <polygon points="181.4 357.02 196.51 338.06 188.56 360.48" clip-rule="evenodd" fill="#F87061" fill-rule="evenodd"/> <polygon points="188.48 359.22 202.88 341.14 195.55 364.06" clip-rule="evenodd" fill="#F87061" fill-rule="evenodd"/> <polygon points="195.23 363.28 208.24 342.82 203.61 366.79" clip-rule="evenodd" fill="#F87061" fill-rule="evenodd"/> <polygon points="203.12 365.54 212.9 344.16 212.55 367.22" clip-rule="evenodd" fill="#F87061" fill-rule="evenodd"/> <polygon points="211.32 366.48 219.94 344.62 220.74 368.16" clip-rule="evenodd" fill="#F87061" fill-rule="evenodd"/> <polygon points="220.05 367.6 224.61 345.38 228.26 366.1" clip-rule="evenodd" fill="#F87061" fill-rule="evenodd"/> <polygon points="227.47 365.7 231.12 344.24 235.16 365.53" clip-rule="evenodd" fill="#F87061" fill-rule="evenodd"/> <polygon points="234.2 365.17 237.45 342.58 242.36 363.01" clip-rule="evenodd" fill="#F87061" fill-rule="evenodd"/> <polygon points="241.97 362.76 243.26 341.02 248.62 360.04" clip-rule="evenodd" fill="#F87061" fill-rule="evenodd"/> <polygon points="248.4 359.7 249.11 339.32 255.31 356.92" clip-rule="evenodd" fill="#F87061" fill-rule="evenodd"/> <polygon points="254.59 356.75 253.78 337.22 260.66 352.86" clip-rule="evenodd" fill="#F87061" fill-rule="evenodd"/> <polygon points="259.81 353.02 259 333.49 265.88 349.13" clip-rule="evenodd" fill="#F87061" fill-rule="evenodd"/> <path d="m269.55 349.27s-19.734 14.169-40.652 18.089-27.174-1.652-40.351-4.312c-13.176-2.657-26.839-11.602-35.593-17.263-8.755-5.662-15.888-9.419-23.434-17.42-7.547-8.001-18.013-22.357-25.108-32.812-7.097-10.453-10.633-18.258-15.356-26.988-5.21-9.628-7.454-20.295-9.032-26.775-1.938-7.955-4.384-16.034-5.375-25.736-1.15-11.255-0.831-21.929-0.831-21.929l7.482 3.886s-0.064 22.243 4.106 36.631c4.169 14.39 4.674 22.635 11.84 36.103 7.166 13.467 5.393 14.936 16.496 29.275 11.103 14.338 11.066 15.378 22.802 27.064 11.735 11.686 7.86 8.26 21.749 17.149 13.889 8.891 11.132 8.802 27.34 13.005 14.062 3.648 20.76 6.384 32.33 5.929 9.265-0.364 21.438-2.949 28.03-6.16 9.198-4.479 19.435-12.242 19.435-12.242l4.122 4.506z" clip-rule="evenodd" fill="#EFDEBA" fill-rule="evenodd"/> <path d="m147.7 244.89c0.175-3.016-21.495-4.248-21.019 4.916 0.476 9.163 20.547 3.265 21.019-4.916z" clip-rule="evenodd" fill="#D7293C" fill-rule="evenodd"/> <path d="m170.89 253.4c0.92-2.877-19.761-9.463-21.581-0.47s19.087 8.277 21.581 0.47z" clip-rule="evenodd" fill="#D7293C" fill-rule="evenodd"/> <path d="m163.36 269.01c-0.254-4.125-26.723 2.473-24.73 14.623 1.994 12.15 25.421-3.434 24.73-14.623z" clip-rule="evenodd" fill="#D7293C" fill-rule="evenodd"/> <path d="m162.69 278.66c-2.101-2.841-16.589 14.629-9.578 22.401 7.012 7.771 15.274-14.694 9.578-22.401z" clip-rule="evenodd" fill="#D7293C" fill-rule="evenodd"/> <path d="m172.08 289.7c-2.101-2.841-16.588 14.63-9.577 22.401s15.273-14.693 9.577-22.401z" clip-rule="evenodd" fill="#D7293C" fill-rule="evenodd"/> <path d="m184.95 274.87c-2.1-2.841-16.589 14.63-9.577 22.401 7.011 7.771 15.274-14.694 9.577-22.401z" clip-rule="evenodd" fill="#D7293C" fill-rule="evenodd"/> <path d="m185.04 296.58c-2.101-2.841-16.588 14.631-9.577 22.402s15.273-14.694 9.577-22.402z" clip-rule="evenodd" fill="#D7293C" fill-rule="evenodd"/> <path d="m199.56 288.79c-2.101-2.842-16.589 14.629-9.578 22.4 7.012 7.771 15.275-14.694 9.578-22.4z" clip-rule="evenodd" fill="#D7293C" fill-rule="evenodd"/> <path d="m206.4 308.04c-2.1-2.841-16.589 14.631-9.578 22.401 7.012 7.772 15.275-14.693 9.578-22.401z" clip-rule="evenodd" fill="#D7293C" fill-rule="evenodd"/> <path d="m212.48 288.29c-2.696-2.283-12.793 18.044-4.187 24 8.608 5.957 11.499-17.804 4.187-24z" clip-rule="evenodd" fill="#D7293C" fill-rule="evenodd"/> <path d="m222.98 296.96c-3.174-3.184-10.329 21.584-0.415 30.048 9.913 8.464 9.024-21.416 0.415-30.048z" clip-rule="evenodd" fill="#D7293C" fill-rule="evenodd"/> <path d="m216.36 317.54c-2.791-2.374-11.693 18.7-2.854 24.893s10.425-18.454 2.854-24.893z" clip-rule="evenodd" fill="#D7293C" fill-rule="evenodd"/> <path d="m237.07 299.38c-3.174-3.183-10.329 21.585-0.415 30.049s9.023-21.416 0.415-30.049z" clip-rule="evenodd" fill="#D7293C" fill-rule="evenodd"/> <path d="m169.86 215.98c3.999-2.052-17.409-16.417-28.492-9.555-11.083 6.861 17.646 15.123 28.492 9.555z" clip-rule="evenodd" fill="#DA483A" fill-rule="evenodd"/> <path d="m167.26 204.98c4.212-1.568-11.919-17.3-23.732-11.787-11.812 5.513 12.307 16.042 23.732 11.787z" clip-rule="evenodd" fill="#DA483A" fill-rule="evenodd"/> <path d="m167.62 193.04c4.212-1.569-12.373-16.812-24.186-11.299-11.812 5.512 12.761 15.554 24.186 11.299z" clip-rule="evenodd" fill="#DA483A" fill-rule="evenodd"/> <path d="m165.39 181.58c3.708-0.839-9.852-18.879-20.42-15.511-10.569 3.368 10.362 17.787 20.42 15.511z" clip-rule="evenodd" fill="#DA483A" fill-rule="evenodd"/> <path d="m166.77 168.14c3.713-0.739-10.105-17.693-20.676-14.678s10.606 16.683 20.676 14.678z" clip-rule="evenodd" fill="#DA483A" fill-rule="evenodd"/> <path d="m167.13 159.02c3.766 0.388-4.444-19.885-15.434-20.118-10.989-0.232 5.22 19.068 15.434 20.118z" clip-rule="evenodd" fill="#DA483A" fill-rule="evenodd"/> <path d="m173.34 149.46c3.714 0.735-2.581-20.212-13.502-21.462-10.92-1.251 3.43 19.468 13.502 21.462z" clip-rule="evenodd" fill="#DA483A" fill-rule="evenodd"/> <path d="m183.89 139.33c3.714 0.734-2.581-20.212-13.502-21.462s3.43 19.469 13.502 21.462z" clip-rule="evenodd" fill="#DA483A" fill-rule="evenodd"/> <path d="m183.88 173.19c3.784 0.131-5.78-19.54-16.76-19.027-10.98 0.512 6.499 18.669 16.76 19.027z" clip-rule="evenodd" fill="#DA483A" fill-rule="evenodd"/> <path d="m186.85 189.3c3.784 0.132-5.78-19.54-16.76-19.027s6.499 18.67 16.76 19.027z" clip-rule="evenodd" fill="#DA483A" fill-rule="evenodd"/> <path d="m195.66 202.42c2.821-2.525-15.632-10.953-23.199-2.98s15.548 9.827 23.199 2.98z" clip-rule="evenodd" fill="#DA483A" fill-rule="evenodd"/> <path d="m199.1 214.86c2.821-2.525-17.7-10.095-25.267-2.122-7.567 7.972 17.617 8.97 25.267 2.122z" clip-rule="evenodd" fill="#DA483A" fill-rule="evenodd"/> <path d="m189.86 125.57c3.556 1.298 0.56-20.369-10.038-23.285-10.599-2.916 0.392 19.765 10.038 23.285z" clip-rule="evenodd" fill="#DA483A" fill-rule="evenodd"/> <path d="m247.28 182.07c3.782-0.16-7.265-19.037-18.173-17.682-10.908 1.354 7.914 18.115 18.173 17.682z" clip-rule="evenodd" fill="#DD3D46" fill-rule="evenodd"/> <path d="m249.08 196.51c3.782-0.16-7.264-19.037-18.173-17.683-10.908 1.355 7.914 18.115 18.173 17.683z" clip-rule="evenodd" fill="#DD3D46" fill-rule="evenodd"/> <path d="m258.26 169.98c4.822 0.363-5.228-26.363-19.324-26.222-14.095 0.141 6.244 25.239 19.324 26.222z" clip-rule="evenodd" fill="#DD3D46" fill-rule="evenodd"/> <path d="m252.74 149.76c4.089 0.644 3.059-26.513-9.24-27.202-12.298-0.689-1.852 25.455 9.24 27.202z" clip-rule="evenodd" fill="#DD3D46" fill-rule="evenodd"/> <path d="m151.41 275.72s-7.911-1.28-10.338 5.062c-1e-3 1e-3 4.026 3.998 10.338-5.062z" clip-rule="evenodd" fill="#65140E" fill-rule="evenodd"/> <path d="m140.62 244.7s-7.857-1.579-10.521 4.667c0 0 3.872 4.147 10.521-4.667z" clip-rule="evenodd" fill="#65140E" fill-rule="evenodd"/> <path d="m161.93 252.42s-7.174-3.571-11.374 1.766c0 0 2.658 5.011 11.374-1.766z" clip-rule="evenodd" fill="#65140E" fill-rule="evenodd"/> <path d="m160.15 282.69s-7.458 2.934-6.31 9.627c0-1e-3 5.502 1.383 6.31-9.627z" clip-rule="evenodd" fill="#65140E" fill-rule="evenodd"/> <path d="m169.61 294.99s-7.458 2.934-6.31 9.627c0 0 5.502 1.385 6.31-9.627z" clip-rule="evenodd" fill="#65140E" fill-rule="evenodd"/> <path d="m184.09 300.53s-6.776 4.278-4.395 10.639c0 0 5.664 0.33 4.395-10.639z" clip-rule="evenodd" fill="#65140E" fill-rule="evenodd"/> <path d="m202.73 313.06s-5.873 5.452-2.362 11.266c0 0 5.628-0.719 2.362-11.266z" clip-rule="evenodd" fill="#65140E" fill-rule="evenodd"/> <path d="m211.49 296.58s-5.873 5.453-2.362 11.266c0 0 5.628-0.719 2.362-11.266z" clip-rule="evenodd" fill="#531518" fill-rule="evenodd"/> <path d="m179.99 281.37s-6.33 4.916-3.343 11.015c1e-3 0 5.669-0.221 3.343-11.015z" clip-rule="evenodd" fill="#531518" fill-rule="evenodd"/> <path d="m223.88 305.8s-4.901 6.34-0.487 11.5c0 0 5.434-1.629 0.487-11.5z" clip-rule="evenodd" fill="#531518" fill-rule="evenodd"/> <path d="m169.75 159.19c1.044-2.768 9.389 2.291 6.93 6.691-2.46 4.402-8.112-3.558-6.93-6.691z" clip-rule="evenodd" fill="#400709" fill-rule="evenodd"/> <path d="m172.24 176.84c0.111-2.956 9.63-0.808 8.695 4.146-0.935 4.955-8.822-0.8-8.695-4.146z" clip-rule="evenodd" fill="#400709" fill-rule="evenodd"/> <path d="m231.77 169.44c0.111-2.956 9.63-0.809 8.695 4.146-0.936 4.954-8.822-0.8-8.695-4.146z" clip-rule="evenodd" fill="#400709" fill-rule="evenodd"/> <path d="m235.82 186.01c0.112-2.956 9.631-0.809 8.696 4.146-0.936 4.954-8.822-0.801-8.696-4.146z" clip-rule="evenodd" fill="#400709" fill-rule="evenodd"/> <path d="m228.9 196.11c0.111-2.956 9.63-0.809 8.695 4.146s-8.821-0.801-8.695-4.146z" clip-rule="evenodd" fill="#400709" fill-rule="evenodd"/> <path d="m240.75 150.32c0.972-3.391 9.388 2.605 7.049 8.013-2.341 5.407-8.149-4.176-7.049-8.013z" clip-rule="evenodd" fill="#400709" fill-rule="evenodd"/> <path d="m246.9 133.66c0.84-3.388 8.201 2.629 6.174 8.03-2.03 5.402-7.124-4.195-6.174-8.03z" clip-rule="evenodd" fill="#400709" fill-rule="evenodd"/> <path d="m147.12 170.94c-0.829-2.84 8.88-3.813 9.56 1.183s-8.622 2.031-9.56-1.183z" clip-rule="evenodd" fill="#400709" fill-rule="evenodd"/> <path d="m145.64 188.14c-2.062-2.162 5.604-4.519 8.578-0.589 2.974 3.928-6.245 3.034-8.578 0.589z" clip-rule="evenodd" fill="#400709" fill-rule="evenodd"/> <path d="m150.43 198.36c-1.68-1.877 5.076-4.408 7.46-0.958 2.384 3.451-5.558 3.083-7.46 0.958z" clip-rule="evenodd" fill="#400709" fill-rule="evenodd"/> <path d="m148.3 210.6c-1.68-1.877 5.076-4.407 7.46-0.957 2.384 3.451-5.558 3.082-7.46 0.957z" clip-rule="evenodd" fill="#400709" fill-rule="evenodd"/> <path d="m160.19 134.36c-0.507-2.468 6.604-1.253 6.928 2.929s-6.354-0.135-6.928-2.929z" clip-rule="evenodd" fill="#400709" fill-rule="evenodd"/> <path d="m178.12 202.98c-1.67-0.971 2.647-3.325 5.204-1.458 2.558 1.866-3.314 2.558-5.204 1.458z" clip-rule="evenodd" fill="#400709" fill-rule="evenodd"/> <path d="m148.84 156.38c-0.054-2.55 7.851-0.836 7.328 3.447-0.522 4.284-7.267-0.562-7.328-3.447z" clip-rule="evenodd" fill="#400709" fill-rule="evenodd"/> <path d="m153.55 144.74c0.496-2.501 7.847 0.873 6.416 4.943-1.433 4.072-6.977-2.112-6.416-4.943z" clip-rule="evenodd" fill="#400709" fill-rule="evenodd"/> <path d="m180.57 109.17c0.496-2.501 7.848 0.873 6.416 4.944s-6.977-2.113-6.416-4.944z" clip-rule="evenodd" fill="#400709" fill-rule="evenodd"/> <path d="m290.87 77.155c12.293-1.293 22.817-1.159 35.827-0.038 73.634 6.345 127.68 78.059 120.62 160.04-1.59 18.475-6.152 35.905-13.105 51.75-32.413 60.062-59.418 78.72-133.42 78.383-8.278-0.037-14.296 0.729-22.844-0.813-4.541-5.173-10.788-13.62-16.083-21.33-26.007-37.876-21.075-93.585-21.356-123.11-0.282-29.521 6.342-56.721 18.268-97.867 6.868-23.7 22.179-39.857 32.095-47.023z" clip-rule="evenodd" fill="#3D4919" fill-rule="evenodd"/> <path d="m309.03 76.233c4.198-0.276 7.713 0.36 11.985 0.528 0.306 1 0.424 2.15 0.107 3.367-0.983 3.78-8.181 3.661-8.181 3.661s1.967 1.568 3.03 7.258c1.063 5.689-6.154 0.682-6.154 0.682s1.926 2.019 0.114 8.087-7.817-2.359-7.817-2.359-2.927 6.08-9.522 5.983c-5.492-0.08-0.565-3.017 1.238-3.997 0.396-0.114 0.598-0.315 0.598-0.315s-0.236 0.118-0.598 0.315c-0.92 0.265-2.883 0.061-5.778-4.222-4.142-6.128 8.938-9.101 8.938-9.101-1.085-3.682 6.812-2.996 8.481-2.671 1.669 0.326 2.033-3.125 1.291-4.949-0.182-0.45 1.191-1.695 2.268-2.267z" clip-rule="evenodd" fill="#A6AA6B" fill-rule="evenodd"/> <path d="m243.9 276.86c1.6 3.026 2.069-0.817 2.069-0.817s-0.867 0.227-2.069 0.817zm0 0c-0.6-1.134-1.359-3.234-2.312-6.865-3.496-13.314 7.899-17.468 7.899-17.468s0.858-0.13-5.586-8.985c-6.445-8.854-1.744-14.055 1.829-25.535 3.574-11.479 10.126-11.349 10.126-11.349s-0.146-1.683-6.543-13.917c-6.395-12.233 8.081-12.198 8.081-12.198l-4.621-5.453c-4.744-6.531 8.668-7.105 8.668-7.105l-5.615-5.87c-2.273-5.403 6.394-4.873 6.394-4.873 1.521-6.719 5.26-2.833 5.26-2.833l0.664-3.624s-4.311-3.268-9.427-11.251c-5.116-7.984 7.748-9.694 7.748-9.694 0.056-3.076 2.374-3.796 2.374-3.796 3.811-4.744 12.441-2.972 12.441-2.972l-5.834-4.408c-1.329-8.979 16.132-8.327 16.132-8.327-1.076-4.917 9.804-6.26 9.804-6.26s8.113 1.998 11.668 8.325c3.556 6.326-11.851 13.66-11.851 13.66 10.328 3.685 5.572 14.715 5.572 14.715 3.438 9.789-9.459 16.873-9.459 16.873 0.177 7.675-8.189 7.22-8.189 7.22 8.731 6.729-3.938 19.589-3.938 19.589 3.806 10.762-2.295 11.832-2.295 11.832 2.334 8.723-1.816 8.91-1.816 8.91 12.967 6.028-3.718 23.84-3.718 23.84 0.818 6.637-10.064 4.092-10.064 4.092l4.527 5.752c11.619 1.258 6.14 16.57 6.14 16.57 5.388 5.104-4.64 14.797-4.64 14.797 2.785 6.984-6.003 13.255-6.003 13.255s4.268 11.057 5.335 20.984-6.094 5.548-4.479 6.692c1.614 1.146 2.308 2.851 5.479 11.961 3.171 9.109-3.007 11.025-3.007 11.025s2.087 3.475 4.879 8.853c2.792 5.379 2.948 16.35 2.948 16.35l-8.091-7.946s-3.937-3.177-9.383-7.56c-4.822-7.293-8.537-15.214-11.394-23.46 1.014-1.74 1.977-2.833 1.977-2.833s-1.902-1.753-4.569-5.558c-3.024-11.039-4.719-22.461-5.648-33.581 0.89-0.689 1.781-1.203 2.537-1.574z" clip-rule="evenodd" fill="#A2A554" fill-rule="evenodd"/> <path d="m299.59 108.4s-6.694-2.576-4.046 4.605c0 0-12.014-1.603-6.376 10.21 0 0-9.641-1.749-6.386 4.971l3.498 4.872s-6.968-0.38-7.081 5.042c0 0-1.637-0.609-5.047 0.067 0 0-7.901 1.36-2.674 8.364l4.377 2.995s-3.795 0.24-5.526 4.173c0 0-1.537 1.574 0.831 5.81 0 0-7.829-5.273-8.96 2.38 0 0-0.763 3.234 3.28 6.958 0 0-12.035-0.868-8.151 4.769 0 0 8.433 2.55 5.911 6.298-2.521 3.748-12.323 1.088-6.716 10.216 0 0-9.271 2.613-2.538 9.36l5.052 5.719s-8.891 1.572-3.764 7.642c0 0-8.499 2.44-3.932 9.004 0 0-9.553 0.75-4.237 8.524 0 0-7.176 2.899-0.445 9.375 0 0 1.574 10.671 9.562 6.95 0 0-11.332 1.089-9.359 14.901 0 0-3.126 4.612 3.868 9.636 0 0-1.43-0.361-2.18 9.437-0.748 9.798 2.637 10.374 2.637 10.374s-6.287-0.553-2.855 7.392c0 0 0.051 6.939 7.131 10.231 0 0-8.685 5.112-0.244 13.52 0 0-0.635 10.441 8.548 16.466 0 0 0.55 3.844 6.699 8.083 0 0 6.825-5.59 0.39-11.275 0 0 8.47-22.183-8.017-25.042 0 0 9.264-6.966 2.918-14.65 0 0 8.706-15.314-4.934-16.183 0 0 25.244-6.183 7.837-23.992 0 0 18.324-15.505-1.113-19.013 0 0 1.148-5.997-4.657-7.274 0 0 21.216 0.896 18.13-7.753 0 0 7.047-19.98-8.271-12.456 0 0 8.427-10.889-0.824-12.042 0 0 10.703-0.022 7.858-6.136 0 0 6.676-10.611-2.633-10.459 0 0 15.948-12.85 2.622-13.534 0 0 8.852-0.121 6.761-7.464 0 0 10.697 1.496 7.405-6.799 0 0 14.237-12.718 6.165-16.57l-6.356-1.259s9.517-7.655 4.138-9.48c0 0 9.113-4.064 3.396-6.994s5.436-10.436-1.692-9.969z" clip-rule="evenodd" fill="#DFCF6F" fill-rule="evenodd"/> <path d="m318.08 171.36c-4.98-4.581 0.608-11.342 0.608-11.342-23.775-12.57 2.298-19.682 2.298-19.682-15.658-17.881 0.815-15.858 0.815-15.858-5.102-9.718 5.442-8.703 5.442-8.703-14.438-10.428-0.478-14.854-0.478-14.854 5.014-10.48 0.804-10.852 0.804-10.852-7.277-7.797 7.67-9.206 7.67-9.206 7.158 5.479-1.186 17.502-1.186 17.502 13.67-4.126 5.9 12.103 5.9 12.103 9.014-2.447 4.857 12.518 4.857 12.518 3.405 5.389-6.258 7.288-6.258 7.288 7.037 3.983 1.117 8.288 1.117 8.288 9.417 4.179-0.762 9.395-0.762 9.395 8.371 5.38-4.938 11.083-4.938 11.083 11.27 1.775 7.572 18.111 7.572 18.111 11.57 19.403-9.494 17.871-9.494 17.871 8.016 2.456 0.713 9.494 0.713 9.494 10.574 0.962 3.627 9.986 3.627 9.986 11.171 4.864 2.35 19.588 2.35 19.588 7.733 6.618-10.924 15.43-10.924 15.43 4.752 5.084-0.323 8.766-0.323 8.766 10.949 6.283-2.052 17.304-2.052 17.304 7.84 5.463-5.455 20.264-5.455 20.264 13.889 11.111-4.535 20.446-4.535 20.446 6.426 12.313-4.381 13.404-4.381 13.404s2.882 0.576 1.542 7.868c-1.342 7.292-9.717 8.605-9.717 8.605s-0.575 6.75-2.5 12.199c-0.886 2.505-3.089 6.155-5.355 8.726-2.189-0.133-4.362-0.337-6.519-0.604-0.895-5.396 0.604-7.351 2.562-10.549 2.139-3.492 1.491-8.514 1.491-8.514-12.265-9.422-2.17-18.037-2.17-18.037-5.702-7.287-0.781-8.782-0.781-8.782-1.592-8.419 9.577-9.58 9.577-9.58-12.902-0.926-5.696-1.757-8.246-13.361-1.404-6.388 2.276-9.282 5.87-10.593 1.587-0.012 3.503-0.343 5.811-1.087 0 0-2.875 0.016-5.811 1.087-11.017 0.076-6.165-15.279-6.165-15.279-10.884-13.286 15.451-15.982 15.451-15.982-14.113-8.624 2.81-15.677 2.81-15.677-15.88 4.676-2.175-13.788-2.175-13.788-12.7-6.804 0.132-12.854 0.132-12.854-4.598-8.749 5.858-5.936 5.858-5.936l-5.424-6.249c-4.941-8.15 7.706-10.222 7.706-10.222-9.521-1.286-7.952-12.021-7.952-12.021 3.456-7.981 7.86-8.636 11.018-7.714 0.944 0.868 2.267 1.658 4.078 2.308 0 0-1.68-1.609-4.078-2.308z" clip-rule="evenodd" fill="#A2A554" fill-rule="evenodd"/> <path d="m330.97 103.24s-7.791 3.223-2.022 9.053c0 0-0.411 4.872 3.535 7.097 0 0-12.731-1.457-5.861 6.895 0 0-7.551 4.229-0.233 12.831 0 0-12.531 2.284-8.744 9.583 0 0-6.265 6.596 0.736 10.377 0 0-2.243 12.168 5.316 12.872 0 0-4.548 4.033-1.079 7.829 0 0-20.112-3.749-7.195 10.432 0 0-10.42 10.967-2.077 17.681 0 0-10.049 8.835-1.134 12.585 0 0-11.233 5.478-2.398 9.227 0 0-7.326 15.74 1.733 11.377 0 0-13.861 6.086-4.307 12.601 0 0 4.74 2.812-0.308 10.217 0 0-32.615 13.242-2.082 18.372 0 0-2.201 6.649 3.839 8.077 0 0-22.476-0.5-13.122 15.388 0 0-4.265 7.498 3.285 9.538 0 0-18.831 16.717-5.306 29.924 0 0 8.394 6.512 3.567 10.081-4.825 3.57-1.384 6.983-1.384 6.983s12.91-12.686 10.011-18.457c0 0 12.41-6.524 6.21-13.229 0 0 10.377-12.442 1.734-14.246 0 0 6.805-19.928-2.846-15.899 0 0 4.082-6.523-0.819-5.657 0 0 13.483 1.83 11.969-9.302 0 0 7.893-14.207-2.218-13.549 0 0 6.261-7.414-0.115-8.375 0 0 13.668-6.79 5.157-13.972 0 0 20.29-11.089 9.236-13.159 0 0-3.451-6.368-10.438-3.263 0 0 17.394-8.802 7.011-13.021 0 0 6.219-8.064-0.599-13.304 0 0 8.714-12.084-1.337-12.393 0 0-0.366 3.76 5.729-3.877 0 0 10.373-4.973 1.119-12.59 0 0 9.876-21.095-4.416-16.696 0 0 2.605-3.946-1.667-4.178 0 0 16.85-5.082 5.971-11.242 0 0 10.63-12.148 1.56-15.762 0 0 6.386-3.915 1.183-6.114 0 0 7.562-6.423 2.478-7.619 0 0 2.229-9.775-5.021-5.826 0 1e-3 2.31-11.234-4.651-7.29z" clip-rule="evenodd" fill="#DFCF6F" fill-rule="evenodd"/> <path d="m356.11 83.389c3.534 1.228 6.998 2.615 10.387 4.153 3.862 7.071 2.587 19.729 2.587 19.729l5.681 4.31c14.538-0.127 8.712 18.972 8.712 18.972 11.824 6.39 1.606 17.098 1.606 17.098 9.572 4.137 3.627 18.016 3.627 18.016 14.19 7.656-3.324 25.852-3.324 25.852 7.929 2.256 2.056 10.05 2.056 10.05 8.603-6.079 4.652 16.453 4.652 16.453 4.941 8.124-12.08 12.769-12.08 12.769 4.299 2.449 1.584 6.044 1.584 6.044 7.02 8.545 1.596 20.385 1.596 20.385 4.728 6.023-8.779 20.813-8.779 20.813 8.966 12.926-7.914 28.865-7.914 28.865 4.985 11.313-11.64 22.167-11.64 22.167 0.062 9.847-20.835 21.021-20.835 21.021-3.698 7.338-3.409 4.204-11.034 10.795-7.626 6.589-14.761 1.291-14.761 1.291 4.731-13.896 13.59-14.182 13.59-14.182-1.47-12.366 9.348-12.498 9.348-12.498-5.058-13.39 8.97-20.124 8.97-20.124-7.815-11.482 3.565-22.807 3.565-22.807-13.396-15.59 7.782-33.386 7.782-33.386-6.52-20.783 12.708-24.718 12.708-24.718-25.835-18.136-1.482-37.504-1.482-37.504-6.104-8.052 1.948-11.351 1.948-11.351-12.215 4.715-5.797-13.754-5.797-13.754-8.259-6.33 1.947-12.66 1.947-12.66-3.351-8.64 5.569-8.719 5.569-8.719-9.078-5.401 1.52-11.45 1.52-11.45-10.951-5.195-1.296-14.739-1.296-14.739-12.434-4.241-4.905-18.839-4.905-18.839-14.86-6.875-8.201-21.079-8.201-21.079 0.923-0.416 1.793-0.739 2.613-0.973z" clip-rule="evenodd" fill="#A2A554" fill-rule="evenodd"/> <path d="m359.74 84.714c1.617 0.62 3.218 1.273 4.802 1.96 4.097 4.792 2.351 16.651 2.351 16.651-3.306 7.07-5.599-0.906-5.599-0.906 5.434-9.668-3.048-17.486-3.048-17.486 0.527-0.12 1.026-0.191 1.494-0.219z" clip-rule="evenodd" fill="#DFCF6F" fill-rule="evenodd"/> <path d="m368.44 112.74s-6.225 4.254 0.144 10.306c0 0-5.066 6.734 0.929 11.939 0 0 4.329 0.867 2.891 7.544 0 0-8.302 7.442-2.245 13.665 0 0-6.479 6.352-1.905 11.825 0 0-9.688 8.799-2.15 11.922 0 0-3.112 9.142 3.994 8.335 0 0-6.514 2.566-1.197 8.437 0 0-12.349 3.612-6.458 12.782 0 0-8.977 20.042 1.799 18.15 0 0-4.856 5.257 1.731 7.786 0 0-9.621 2.835-7.369 13.595 0 0-8.585 2.232-5.857 12.269 0 0-19.75 11.96-8.491 27.645 0 0-6.088 6.372 0.018 11.528 0 0-7.667 7.034-2.257 17.613 0 0-1.23 1.514-3.14 11.883 0 0-7.276-2.444-3.552 7.867 0 0-4.791 0.48-9.21 6.993 0 0-7.322 2.934-9.118 14.862 0 0 6.826 1.408 12.353-7.151l6.078-6.246s14.648-4.455 12.97-12.97c0 0 6.003-1.557 4.312-8.112 0 0 11.206-2.762 6.473-12.928 0 0 7.542 0.243 2.211-9.214 0 0 12.068-1.61 6.029-11.688 0 0 10.523-12.497-0.306-14.715 0 0 6.616-4.818 2.109-8.027 0 0 16.893-5.085 8.322-12.375 0 0 6.783-9.783-0.848-14.677 0 0 8.522-5.513 0.104-12.777 0 0 12.114-6.161 6.488-15.189 0 0 12.235-17.671-0.686-15.654 0 0 7.261-8.093-1.879-9.104 0 0 22.298-6.543 4.625-21.098 0 0 8.681-17.573-4.294-18.714 0 0 4.857-5.685-0.263-8.044 0 0 7.062-7.592 0.302-10.171 0 0 3.188-13.276-3.822-11.286-2e-3 -2e-3 -1.083-14.229-8.835-6.806z" clip-rule="evenodd" fill="#DFCF6F" fill-rule="evenodd"/> <path d="m438.71 168.79c7.464 20.96 10.687 44.222 8.604 68.374-1.59 18.475-6.152 35.905-13.105 51.75-20.956 38.825-39.648 60.351-70.235 70.626 2.26-1.667 4.967-3.741 7.845-6.108 7.673-6.308 9.115-13.645 20.124-13.389 0 0 0.675-10.175 9.499-11.351 0 0 1.575-19.672 13.113-17.992 0 0 2.763-14.509 10.099-18.564 0 0 1.033-17.909 7.799-22.199 0 0-0.378-15.068 4.247-18.235 0 0-3.988-11.481 3.562-15.821 0 0-7.259-14.947 1.729-24.111 0 0-5.966-14.252-1.547-19.454 0 0-8.757-13.769-3.672-20.656l1.938-2.87z" clip-rule="evenodd" fill="#A2A554" fill-rule="evenodd"/> <path d="m297.05 186.71s-8.142 3.017-0.526 7.869c0 0-8.43 4.69-2.124 7.999 0 0-7.816 6.183-1.236 11.061 0 0-8.539 7.273-2.421 11.568 0 0-12.394 10.482-4.854 15.765 0 0-9.256 7.333 0.31 14.339 0 0 9.456-3.668 6.147-11.718 0 0 5.612-7.458 3.143-15.305 0 0 4.497-8.165 2.73-14.047 0 0 1.768-7.522 0.686-10.822 0 0 2.193-4.191 1.586-7.178-1e-3 -1e-3 -2.565-1.932-3.441-9.531z" clip-rule="evenodd" fill="#46541F" fill-rule="evenodd"/> <path d="m300.44 176.68s-6.354-8.869 1.992-14.388c1e-3 0 7.116 3.457-1.992 14.388z" clip-rule="evenodd" fill="#46541F" fill-rule="evenodd"/> <path d="m352.32 126.47s-10.409 9.097-1.321 18.49c0 0-8.727 9.775-3.389 16.615 0 0-2.758 11.095 1.383 15.795 0 0 5.128-9.462 2.097-15.038 0 0 5.09-7.526 2.758-15.359 0 0 2.065-11.806-1.528-20.503z" clip-rule="evenodd" fill="#46541F" fill-rule="evenodd"/> <path d="m396.5 144.22c1.742-0.428 4.348 4.056 5.803 10.007 1.46 5.951 1.226 11.13-0.518 11.558-1.747 0.428-4.348-4.056-5.808-10.007-1.454-5.951-1.225-11.129 0.523-11.558z" clip-rule="evenodd" fill="#46541F" fill-rule="evenodd"/> <path d="m402.43 163.09c1.37 0.179 1.829 5.271 1.029 11.364-0.794 6.093-2.552 10.894-3.921 10.715s-1.829-5.271-1.033-11.364c0.799-6.093 2.555-10.893 3.925-10.715z" clip-rule="evenodd" fill="#46541F" fill-rule="evenodd"/> <path d="m401.64 183.94c1.337 0.175 1.949 3.941 1.365 8.404-0.589 4.463-2.146 7.945-3.48 7.771-1.336-0.175-1.944-3.941-1.36-8.404 0.584-4.464 2.144-7.945 3.475-7.771z" clip-rule="evenodd" fill="#46541F" fill-rule="evenodd"/> <path d="m297.44 94.025s8.646 3.77 8.579-6.258c1e-3 1e-3 -5.221-7.951-8.579 6.258z" clip-rule="evenodd" fill="#DFCF6F" fill-rule="evenodd"/> <path d="m332.75 365.92c2.595-2.266 6.021-5.442 8.422-8.36 0 0 6.42-1.255 11.356-8.362 0 0 3.352-11.54 10.883-11.296 0 0 5.712-14.525 14.479-10.904 0 0-3.225-5.146 4.187-13.17 0 0 3.15-10.089 9.95-14.752 0 0 1.651-11.934 6.98-18.169 0 0-3.17-12.692 3.17-24.319 0 0 0.393-10.939 7.129-8.784 0 0-7.21-9.513 2.566-16.915 0 0-5.065-10.564 1.351-18.136 0 0-10.558-1.126-5.736-10.934 0 0-4.658-11.319 3.572-15.459 0 0-11.583-21.458 1.039-20.605 0 0 2.058-13.796-4.999-16.341 0 0-10.975-11.457-0.096-13.021 0 0-11.95-3.633-11.056-14.135 0 0-18.128-6.492-11.91-24.343 0 0 0.556 0.087 1.459 0.338 4.236 2.896 8.307 6.048 12.194 9.438 0.938 1.832 1.623 3.998 1.91 6.552 0 0 1.599 7.287 9.777 15.506 0 0 7.852 4.277 8.264 16.927 0 0 1.824 7.028 5.405 14.591 0 0 8.298 4.768 3.462 10.335 0 0 7.411 9.436-1.513 14.812 0 0 1.383 3.581-4.099 8.485 0 0 13.449 8.188 7.071 18.579 0 0 5.286 13.223-2.777 18.73 0 0 11.022 10.294-3.011 24.594 0 0 5.113 9.107-7.129 17.846 0 0 3.768 4.304-3.635 12.228 0 0 4.405 9.956-6.799 17.338 0 0-2.427 20.528-16.38 27.203 0 0-2.667 4.811-13.201 7.108 0 0-0.036 6.392-8.287 8.31 0 0-4.903 5.633-14.223 10.18 0 0-7.791 2.951-17.927 8.706-0.611 0.068-1.228 0.135-1.848 0.199z" clip-rule="evenodd" fill="#A2A554" fill-rule="evenodd"/> <path d="m344.56 359.23s7.529-11.551 12.602-10.58c0 0 4.798-10.807 11.791-9.953 0 0 2.459-7.459 6.364-6.52 0 0 3.049-9.161 7.845-9.146 0 0-0.645-11.589 5.96-13.432 0 0 1.3-9.101 5.226-9.112 0 0 1.174-6.905 4.917-8.069 0 0-1.331-18.721 6.12-20.257 0 0-1.035-23.354 5.027-17.663 0 0-0.235-6.519 3.763-4.721 0 0-8.537-12.837 0.556-17.547 0 0-3.979-11.894 1.881-13.829 0 0-5.946-7.688-1.057-10.226 0 0-5.736-8.122-0.705-9.729 0 0-2.968-9.905 0.973-11.001 0 0-8.016-14.132-1.81-14.1 0 0-1.457-6.87 2.374-8.607 0 0 0.536-5.862 2.687-6.676 0 0-9.729-7.876-5.444-11.137 0 0-4.017-7.164-1.105-8.068 0 0 4.663 3.664 3.725 8.396 0 0 6.895 8.113 5.367 11.701 0 0 1.758 1.224 0.211 6.411 0 0 3.279 4.043 0.12 7.409 0 0 2.571 5.73-0.667 9.237 0 0 0.164 4.206-0.976 5.191 0 0 2.954 3.202-0.833 6.254 0 0 2.217 2.584-0.437 6.86 0 0 12.928 2.823 3.605 11.662 0 0 2.442 1.095-0.603 4.926 0 0 10.332 8.848 2.264 13.515 0 0 2.266 5.169-2.169 8.608 0 0 7.389 8.688-1.699 14.181 0 0 1.308 1.657-2.997 4.509 0 0 2.896 10.492-4.76 14.009 0 0 2.208 9.188-2.681 12.515 0 0 6.114 10.62-4.567 18.091 0 0-2.131 6.179-6.929 8.104 0 0 1.604 5.265-4.567 8.075 0 0-0.244 10.481-6.638 11.766 0 0-3.262 6.234-8.609 6.668 0 0 0.145 2.577-6.673 4.354 0 0-5.581 8.184-9.167 8.413 0 1e-3 -11.459 7.752-18.285 9.518z" clip-rule="evenodd" fill="#DFCF6F" fill-rule="evenodd"/> </svg>